<svg width="28" height="26" viewBox="0 0 28 26" fill="none" xmlns="http://www.w3.org/2000/svg">
<path d="M10 25C10.5523 25 11 24.5523 11 24C11 23.4477 10.5523 23 10 23C9.44772 23 9 23.4477 9 24C9 24.5523 9.44772 25 10 25Z" stroke="white" stroke-width="2" stroke-linecap="round" stroke-linejoin="round"/>
<path d="M22.7141 24.9999C23.3453 24.9999 23.857 24.4883 23.857 23.8571C23.857 23.2259 23.3453 22.7142 22.7141 22.7142C22.083 22.7142 21.5713 23.2259 21.5713 23.8571C21.5713 24.4883 22.083 24.9999 22.7141 24.9999Z" stroke="white" stroke-width="2" stroke-linecap="round" stroke-linejoin="round"/>
<path d="M1 1H5.57143L8.63429 16.3029C8.73879 16.829 9.02504 17.3017 9.44291 17.6381C9.86078 17.9744 10.3837 18.1531 10.92 18.1429H22.0286C22.5649 18.1531 23.0878 17.9744 23.5057 17.6381C23.9235 17.3017 24.2098 16.829 24.3143 16.3029L26.1429 6.71429H6.71429" stroke="white" stroke-width="2" stroke-linecap="round" stroke-linejoin="round"/>
</svg>
